<svg width="161" height="30" viewBox="0 0 161 30" fill="none" xmlns="http://www.w3.org/2000/svg">
<path fill-rule="evenodd" clip-rule="evenodd" d="M59.8329 26.0816C55.7219 26.0816 52.1093 23.9589 50.0452 20.765H54.4732C55.8448 21.7024 57.7331 21.5744 58.9477 20.3681C60.3193 19.01 60.3193 16.8132 58.9477 15.4573C57.5781 14.102 55.3612 14.102 53.9912 15.4573C53.2943 16.1482 52.9491 17.0553 52.9666 17.9583H48.726C48.3946 16.8893 48.2161 15.761 48.2161 14.5867C48.2161 8.24686 53.4261 3.08442 59.8329 3.08442C63.9164 3.08442 67.5126 5.189 69.5823 8.35171H65.1118C63.7488 7.47328 61.9071 7.61913 60.7116 8.80599C59.3384 10.1594 59.338 12.3587 60.7116 13.7104C62.0774 15.0686 64.2989 15.0686 65.6729 13.7104C66.3799 13.0081 66.7182 12.0813 66.6947 11.1612H70.9185C71.2592 12.2433 71.4443 13.3929 71.4443 14.5867C71.4443 20.9217 66.2355 26.0816 59.8329 26.0816ZM74.5622 14.5867C74.5622 13.4046 74.4203 12.2607 74.1485 11.1612H78.324V20.8083H81.1654V11.1612H84.889V8.35171H73.1502C70.7911 3.41528 65.7167 0.00044632 59.8329 0.00044632C51.6956 0.00044632 45.099 6.53343 45.099 14.5867C45.099 15.7436 45.2393 16.8783 45.4977 17.9583H41.5498V11.1154L41.5429 11.1126V9.89699C41.5 9.18828 41.0593 8.52256 40.3604 8.31156C39.9725 8.21642 39.5106 8.26385 39.0695 8.61857C38.7227 8.89957 35.6546 12.2559 35.3395 12.6203C35.0255 12.2559 31.9566 8.89957 31.6101 8.61857C31.1695 8.26385 30.7083 8.21642 30.3131 8.31156C29.6212 8.52256 29.1761 9.18828 29.1359 9.89699L29.1343 11.1126L29.1307 11.1154V20.765H31.9894V12.6328L34.0749 15.0981C34.4948 15.6501 34.9147 15.9405 35.3395 15.953C35.7605 15.9402 36.1828 15.6501 36.6038 15.0981L38.687 12.6328V20.765H46.4844C48.8364 25.728 53.924 29.1664 59.8329 29.1664C67.9697 29.1664 74.5622 22.6416 74.5622 14.5867ZM100.547 20.8083L102.971 16.7564L105.514 20.8083H109.01L104.72 14.1875L108.838 8.33344H105.514L103.042 12.0299L100.547 8.33344H97.1089L101.226 14.3155L96.9499 20.8083H100.547ZM112.695 15.4464H118.72V20.8083H121.532V8.33344H118.72V12.6349H112.695V8.33344H109.832V20.8083H112.695V15.4464ZM87.0179 19.9389C87.7201 20.4993 88.6986 20.7909 89.6613 20.8083H95.9467V17.9883H90.0003C89.6317 17.9656 89.1733 17.7404 88.9801 17.5574C88.7388 17.2934 88.5781 16.8763 88.5781 16.2932V15.9404H95.9467V13.0532H88.5781V12.6349C88.5781 12.055 88.7388 11.8266 88.9801 11.5763C89.1733 11.3831 89.6317 11.1611 90.0003 11.1393H95.9467V8.33344H89.6616C88.6986 8.34973 87.7201 8.6473 87.0179 9.21702C85.7936 10.1983 85.7088 11.5904 85.7088 12.5814V16.5609C85.7088 17.5574 85.7936 18.9452 87.0179 19.9389ZM132.638 12.76V20.8083H135.449V8.33344H132.373L126.68 16.413V8.33344H123.747V20.8083H127.003L132.638 12.76ZM157.797 15.4375V18.0502L153.392 18.0573C152.802 18.0573 152.401 17.9346 152.129 17.6459C151.863 17.3645 151.82 17.1571 151.82 16.7064C151.82 16.3647 151.863 16.1229 152.129 15.8326C152.401 15.5487 152.802 15.4284 153.392 15.4284H157.797V15.437V15.4375ZM152.534 11.356C152.813 11.0944 153.144 11.0134 153.587 10.9951H156.467C156.859 10.9951 157.192 11.0737 157.464 11.3346C157.77 11.6412 157.77 11.9522 157.77 12.2939L157.77 12.6311L152.847 12.6354C151.96 12.6497 150.909 12.9537 150.205 13.5153C148.974 14.5054 148.902 15.6887 148.902 16.6687V16.7023C148.902 17.6876 148.974 18.9393 150.205 19.9306C150.909 20.4998 151.883 20.7914 152.847 20.8089H160.61V12.5796C160.61 11.5881 160.576 10.1972 159.353 9.21231C158.644 8.63974 157.722 8.3503 156.758 8.32673H153.438C152.469 8.3503 151.388 8.63974 150.685 9.21231C149.572 10.1097 149.426 11.1132 149.426 12.0819H152.305C152.305 11.8057 152.351 11.553 152.534 11.3566V11.356ZM140.485 15.467H141.854L145.877 20.8083H149.319L144.405 14.155L149.319 8.35171H145.953L142.118 12.6526H140.485V8.35171H137.619V20.8083H140.485V15.467ZM18.1765 12.8563C18.1765 12.2724 18.3302 11.8469 18.5752 11.5876C18.772 11.4066 19.2275 11.179 19.5919 11.1612H22.7235C23.0903 11.179 23.543 11.4066 23.7455 11.5876C23.9808 11.8469 24.1433 12.2724 24.1433 12.8563V16.313C24.1433 16.8893 23.9803 17.3156 23.7455 17.5707C23.543 17.7619 23.0903 17.9883 22.7235 18.0053H19.5919C19.2275 17.9883 18.772 17.7619 18.5752 17.5707C18.3302 17.3156 18.1761 16.8893 18.1761 16.313L18.1765 12.8563ZM16.6179 19.9316C17.3144 20.4993 18.2944 20.7909 19.2547 20.8083H23.0599C24.0253 20.7909 25.0034 20.4993 25.702 19.9316C26.932 18.9488 27.0103 17.5526 27.0103 16.5664V12.5967C27.0103 11.614 26.932 10.2189 25.702 9.23245C25.0034 8.67073 24.0253 8.37114 23.0599 8.35171H19.2547C18.2944 8.37114 17.3144 8.67073 16.6174 9.23245C15.3907 10.2189 15.3087 11.614 15.3087 12.5967V16.5664C15.3087 17.5526 15.3907 18.9488 16.6174 19.9316H16.6179ZM59.8487 21.5457V23.8609C65.0076 23.8523 69.1867 19.7186 69.1997 14.6114H66.8623C66.8469 18.4309 63.7062 21.5393 59.8483 21.5457H59.8487ZM10.3316 17.9883H5.07985V12.8657C5.07985 12.2809 5.24329 11.8549 5.48758 11.5942C5.68221 11.4066 6.14302 11.1766 6.51096 11.1523H8.89962C9.26756 11.1766 9.72995 11.4066 9.92673 11.5942C10.171 11.8549 10.3316 12.2809 10.3316 12.8657V17.9883ZM13.2702 12.6093C13.2702 11.614 13.1879 10.2109 11.9523 9.21702C11.2443 8.6473 10.2622 8.34245 9.28946 8.32616H6.11755C5.15284 8.34245 4.16466 8.6473 3.45956 9.21702C2.21907 10.2109 2.14037 11.614 2.14037 12.6093V17.9883H0V20.8083H13.2702V12.6093Z" fill="#FD7722"/>
</svg>
