<svg width="20" height="20" viewBox="0 0 20 20" fill="none" xmlns="http://www.w3.org/2000/svg">
<path fill-rule="evenodd" clip-rule="evenodd" d="M9.99999 0C15.5223 0 20 4.47691 20 10.0002C20 15.5226 15.5223 20 9.99999 20C4.47682 20 0 15.5226 0 10.0002C0 4.47691 4.47682 0 9.99999 0ZM9.99999 9.95847C11.3772 9.95847 12.4947 8.84215 12.4947 7.46375C12.4947 6.08649 11.3772 4.96951 9.99999 4.96951C8.6221 4.96951 7.50531 6.08649 7.50531 7.46375C7.50531 8.84215 8.6221 9.95847 9.99999 9.95847ZM9.99999 6.23706C10.6775 6.23706 11.2271 6.78673 11.2271 7.46375C11.2271 8.14191 10.6775 8.69141 9.99999 8.69141C9.322 8.69141 8.77234 8.14191 8.77234 7.46375C8.77234 6.78673 9.322 6.23706 9.99999 6.23706ZM12.8751 10.2631C12.7342 9.98038 12.3444 9.74446 11.8258 10.1537C11.1251 10.7051 9.99999 10.7051 9.99999 10.7051C9.99999 10.7051 8.87437 10.7051 8.17398 10.1537C7.65506 9.74446 7.26481 9.98038 7.12438 10.2631C6.87882 10.7562 7.15625 10.9949 7.78242 11.3966C8.3167 11.74 9.05174 11.8679 9.52635 11.9161L9.13005 12.3119C8.57255 12.8699 8.03404 13.4083 7.66063 13.7824C7.43665 14.0052 7.43665 14.3677 7.66063 14.5907L7.72781 14.6582C7.83898 14.77 7.98548 14.8261 8.13229 14.8256C8.27878 14.8256 8.42476 14.77 8.53642 14.6582L10.0065 13.1883C10.5644 13.7458 11.1029 14.2843 11.4769 14.6582C11.6998 14.8817 12.0622 14.8817 12.2852 14.6582L12.3524 14.5907C12.5758 14.3677 12.5758 14.0052 12.3524 13.7824L10.8823 12.3119L10.4852 11.9151C10.9602 11.8661 11.6869 11.7373 12.2171 11.3966C12.8431 10.9949 13.1207 10.7562 12.8751 10.2631Z" fill="#FD7722"/>
</svg>
