<svg width="20" height="20" viewBox="0 0 20 20" fill="none" xmlns="http://www.w3.org/2000/svg">
<path fill-rule="evenodd" clip-rule="evenodd" d="M12.4027 14.1449C12.3062 14.1449 12.2089 14.13 12.1311 14.0948C11.973 14.0239 11.923 13.9716 11.7919 13.8824L11.0796 13.3555C11.0495 13.33 11.0313 13.3189 11.0008 13.2967C10.9457 13.2559 10.8961 13.2198 10.8414 13.1799L9.81304 12.4176C9.70972 12.3388 9.7269 12.3489 9.54707 12.5287L9.31899 12.748C9.31736 12.7503 9.31573 12.7526 9.3141 12.754L9.27748 12.7869C9.18724 12.8735 9.10974 12.97 9.00969 13.0473C8.81269 13.1994 8.69219 13.4093 8.44663 13.5399C8.36554 13.5826 8.28577 13.6281 8.17836 13.6281C8.17836 13.3065 8.23998 13.0099 8.24734 12.6984C8.25061 12.5868 8.26581 12.4931 8.27006 12.388C8.2717 12.3319 8.27824 12.3036 8.28151 12.2387C8.28478 12.1677 8.33938 11.3521 8.36162 11.3086C8.37633 11.2788 8.42195 11.2538 8.45105 11.2255C8.4808 11.1964 8.50058 11.1717 8.53262 11.1464C8.6263 11.0712 8.70592 10.9828 8.79535 10.9039L9.23709 10.5076C9.32701 10.4293 9.40613 10.3404 9.5003 10.2653L9.6736 10.1059C9.80144 9.97515 9.97849 9.83716 10.1101 9.70408L10.9878 8.90558C11.0245 8.87223 11.0416 8.85686 11.0796 8.82498L12.1349 7.85907C12.1687 7.83275 12.1872 7.811 12.2165 7.78076L12.5724 7.45868C12.5822 7.44903 12.5997 7.42484 12.6075 7.41372C12.6646 7.33459 12.6075 7.27802 12.5181 7.27802C12.3739 7.27802 12.1339 7.46097 12.0106 7.54026L11.0106 8.17052C10.9823 8.18589 10.9785 8.18589 10.9517 8.20388L8.76347 9.58587C8.42653 9.79351 8.09238 10.016 7.75363 10.2189L7.17015 10.5874C7.15168 10.5995 7.1322 10.612 7.11275 10.6231C7.0794 10.6435 7.07516 10.643 7.04001 10.6337C6.93423 10.6056 6.83744 10.569 6.74066 10.5415C6.68638 10.5268 6.65386 10.5152 6.60106 10.4975L6.15066 10.3621C6.05012 10.3321 5.95969 10.2972 5.86144 10.2732C5.56488 10.1986 5.26929 10.0767 4.97257 10.0021L4.67224 9.9122C4.56712 9.86169 4.48146 9.80512 4.48146 9.67808C4.48146 9.62724 4.50875 9.56642 4.5323 9.53356C4.54701 9.51132 4.56058 9.5002 4.57922 9.47797C4.65655 9.38576 4.80025 9.33295 4.90766 9.28979L5.42952 9.08771C5.46108 9.07529 5.46891 9.06826 5.50144 9.05665L6.39718 8.71283C6.44949 8.69337 6.49119 8.67571 6.54416 8.65299L6.84481 8.53952C7.13859 8.42083 7.44594 8.31799 7.74021 8.19554L9.52809 7.50315C9.58416 7.4814 9.62406 7.47176 9.67866 7.44674C9.73098 7.42304 9.77512 7.4129 9.82744 7.38968L10.1255 7.27426C10.3525 7.19922 10.569 7.08755 10.7956 7.01431L11.9884 6.55359C12.1571 6.49293 12.3498 6.42475 12.5107 6.35249L13.2572 6.06605C13.3138 6.04562 13.3564 6.02338 13.4037 6.0054C13.5204 5.96142 13.7563 5.85482 13.8732 5.85482C14.0418 5.85482 14.1443 5.88016 14.2402 6.01504C14.3694 6.19439 14.3527 6.39843 14.3047 6.60786C14.2277 6.94335 14.173 7.27475 14.091 7.61171C14.07 7.69558 14.0604 7.78125 14.0382 7.86839L13.9334 8.3726C13.917 8.45876 13.8954 8.52792 13.8778 8.61506L13.5585 10.1216C13.482 10.4563 13.4269 10.7877 13.3443 11.1245C13.3041 11.2891 13.2819 11.466 13.2415 11.6307C13.2206 11.7159 13.2044 11.7984 13.1872 11.886L13.0779 12.3847C13.0296 12.6262 12.8225 13.6804 12.7396 13.8723C12.683 14.0034 12.5843 14.1449 12.4032 14.1449H12.4027ZM9.99974 0C15.5229 0 20 4.47691 20 10.0002C20 15.5226 15.5229 20 9.99974 20C4.4772 20 0 15.5226 0 10.0002C0 4.47691 4.4772 0 9.99974 0Z" fill="#FD7722"/>
</svg>
