<svg width="20" height="20" viewBox="0 0 20 20" fill="none" xmlns="http://www.w3.org/2000/svg">
<path fill-rule="evenodd" clip-rule="evenodd" d="M10.0005 0C15.5232 0 20 4.47691 20 10.0002C20 15.5226 15.5232 20 10.0005 20C4.47716 20 0 15.5226 0 10.0002C0 4.47691 4.47716 0 10.0005 0ZM5.12327 6.98455C5.29101 6.94286 5.73357 6.9651 5.93515 6.9651C6.74573 6.9651 6.7137 6.89757 6.97333 7.60942C7.23703 8.33042 7.93856 9.81117 8.47072 10.2353C9.07824 10.719 8.94058 9.82228 8.94058 9.3426C8.94058 8.8755 8.99567 8.18262 8.82695 7.80544C8.73344 7.59634 8.26946 7.18908 8.63846 7.00041C8.7408 6.94842 8.88352 6.9651 9.005 6.9651C9.24451 6.96559 10.5232 6.94793 10.6525 6.97768C10.901 7.03425 10.8644 7.33181 10.8644 7.60795V9.2633C10.8644 9.47977 10.8189 9.89079 11.039 9.90387C11.5646 9.93493 12.573 8.05232 12.8117 7.52963C13.1004 6.89561 13.081 6.9651 13.9095 6.9651C14.6062 6.9651 15.0922 6.84558 14.8108 7.57034C14.6284 8.04267 14.1811 8.73506 13.9141 9.14657C13.2186 10.2166 13.0484 10.1388 13.5814 10.6675C13.9971 11.0792 14.3989 11.492 14.7456 11.9763C15.6164 13.1925 14.7489 13.0354 14.0295 13.0354C13.3492 13.0354 13.326 13.1001 12.8413 12.5654C12.5823 12.2799 11.3578 10.8729 10.9399 11.2775C10.8194 11.3948 10.8644 11.8179 10.8644 12.0144C10.8644 12.7447 11.0099 12.9877 10.2225 13.0329C8.87797 13.1109 7.69479 12.2688 6.92835 11.3591C6.22109 10.5202 5.16317 8.65806 4.93003 7.55514C4.86692 7.25758 4.8401 7.05453 5.12327 6.98455Z" fill="#FD7722"/>
</svg>
